<svg xmlns="http://www.w3.org/2000/svg" width="1024" height="1024" viewBox="-54.0 -54.0 1132.0 1132.0">
  <g fill="none" stroke="white" stroke-width="50" stroke-linecap="round" stroke-linejoin="round">
    <path d="M 507.35,502.06 C 502.98,557.42 495.05,608.77 484.67,634.55 L 465.77,667.37" data-line="nan"  stroke-width="50.0"/>
    <path d="M 465.77,667.37 C 447.32,649.88 442.1,643.3 420.57,599.25" data-line="nan"  stroke-width="50.0"/>
    <path d="M 749.77,429.04 C 794.57,418.05 807.26,412.98 819.89,406.15 C 836.56,393.61 848.41,381.78 858.58,369.27 C 869.37,352.43 879.41,331.69 888.92,306.84 C 899.17,273.8 907.45,240.71 914.71,203.61 C 919.54,170.58 921.6,137.52 920.44,116.84 C 917.93,104.26 913.19,91.75 905.36,78.96 C 898.29,71.15 890.13,64.5 877.17,57.18 C 864.72,52.65 848.3,49.24 831.9,48.2 C 817.87,48.66 800.91,51.0 783.47,55.0 C 766.25,60.44 747.93,67.7 729.47,76.47 L 707.71,88.45" data-line="nan"  stroke-width="50.0"/>
    <path d="M 400.48,238.78 C 372.27,217.25 342.34,187.66 318.18,165.3 C 291.06,142.17 262.38,119.71 236.97,102.04 C 210.44,85.8 186.39,73.15 164.83,63.79" data-line="nan"  stroke-width="50.0"/>
    <path d="M 420.57,599.25 C 393.07,627.61 368.54,662.96 354.94,680.02 C 340.36,696.41 328.14,708.69 315.75,719.66 C 294.78,734.42 282.23,740.84 265.48,746.68 C 253.12,749.14 240.76,749.76 228.41,748.99 C 212.09,745.31 199.49,740.43 186.79,733.31 C 170.61,720.75 155.41,705.15 142.66,688.48 C 130.32,667.85 120.61,647.11 111.58,622.33 C 105.27,597.79 101.68,573.13 101.24,552.79 C 102.88,536.47 107.63,516.06 114.12,499.8 C 120.95,487.36 129.87,474.7 139.56,463.64 L 165.91,436.68" data-line="nan"  stroke-width="50.0"/>
    <path d="M 481.26,181.61 C 492.32,138.07 500.51,113.24 511.44,88.86 C 524.93,66.43 541.6,45.37 552.17,34.56 C 563.23,24.91 574.48,16.47 584.86,9.87 L 606.62,0.0" data-line="nan"  stroke-width="50.0"/>
    <path d="M 316.51,1.19 C 326.24,5.35 338.85,12.25 359.58,26.87 C 372.01,38.01 379.94,46.32 395.93,66.69 C 410.86,91.78 421.77,116.57 431.1,145.53 L 439.93,183.19" data-line="nan"  stroke-width="50.0"/>
    <path d="M 539.09,826.36 C 552.14,872.89 558.86,890.12 565.79,904.69 C 573.92,919.09 585.58,936.3 597.42,950.81 C 611.26,964.97 625.4,977.07 642.65,989.37 C 657.05,997.83 674.47,1006.22 691.66,1012.75 C 711.83,1018.44 731.91,1022.1 749.19,1023.71 C 772.21,1023.77 792.39,1022.24 812.58,1018.72 C 830.01,1013.97 847.23,1007.66 867.37,998.11 C 884.73,987.78 899.2,977.44 913.7,965.2 C 927.39,951.47 939.52,937.05 951.63,919.73 C 961.53,902.34 969.4,885.22 976.56,864.88 L 981.22,846.55" data-line="nan"  stroke-width="50.0"/>
    <path d="M 707.71,88.45 C 688.65,100.26 666.29,115.57 646.49,130.38 C 622.74,149.76 586.04,182.54 525.49,242.17" data-line="nan"  stroke-width="50.0"/>
    <path d="M 164.83,63.79 C 146.18,57.17 132.1,53.3 117.71,50.46 C 101.1,48.56 85.11,48.24 70.54,49.53 C 56.98,52.45 43.89,57.25 33.78,62.68 C 23.55,70.66 17.02,78.0 10.76,87.52 C 5.62,99.27 2.51,110.16 0.56,122.27 L 0.05,138.49" data-line="nan"  stroke-width="50.0"/>
    <path d="M 525.99,238.82 L 481.26,181.61" data-line="0.0"  stroke-width="50.0"/>
    <path d="M 420.57,599.25 L 400.48,238.78" data-line="4.0"  stroke-width="50.0"/>
    <path d="M 439.93,183.19 L 400.48,238.78" data-line="5.0"  stroke-width="50.0"/>
    <path d="M 810.13,507.83 L 755.58,437.63" data-line="7.0"  stroke-width="50.0"/>
    <path d="M 439.93,183.19 L 481.26,181.61" data-line="11.0"  stroke-width="50.0"/>
    <path d="M 515.31,226.17 L 507.35,502.06" data-line="13.0"  stroke-width="50.0"/>
    <path d="M 525.65,622.35 L 507.04,593.46" data-line="15.0"  stroke-width="50.0"/>
    <path d="M 512.0,874.09 L 539.09,826.36" data-line="26.0"  stroke-width="50.0"/>
    <path d="M 539.09,826.36 L 587.03,854.61" data-line="28.0"  stroke-width="50.0"/>
    <path d="M 536.3266150202546,773.4177774903259 A 225.1108763462126,225.1108763462126 0 0,1 985.7419972940943,794.4460633800086" data-line="31.0"  stroke-width="50.0"/>
    <path d="M 943.73,765.58 L 987.23,794.46" data-line="32.0"  stroke-width="50.0"/>
    <path d="M 1024.0,751.15 L 989.23,795.81" data-line="33.0"  stroke-width="50.0"/>
    <path d="M 0.05,138.49 C 1.7173431600401596,188.6483722392301 12.903550674064212,254.89144140524317 39.73,325.21" data-line="36.0"  stroke-width="50.0"/>
    <path d="M 40.61807142168064,324.93834953977716 A 146.62064729700964,146.62064729700964 0 0,0 169.17713837745802,428.2076154327726" data-line="37.0"  stroke-width="50.0"/>
  </g>
</svg>