<svg xmlns="http://www.w3.org/2000/svg" width="1024" height="1024" viewBox="-54.0 -54.0 1132.0 1132.0">
  <g fill="none" stroke="white" stroke-width="50" stroke-linecap="round" stroke-linejoin="round">
    <path d="M 648.947,657.522 C 680.792,623.833 706.566,588.971 717.617,571.585 C 725.732,557.038 735.308,537.346 742.223,520.747 C 748.512,503.577 755.433,481.187 761.698,457.602 C 764.377,444.469 768.692,403.055 768.699,351.425" data-line="nan"  stroke-width="50.0"/>
    <path d="M 487.287,194.694 C 478.726,185.124 468.452,175.703 457.312,167.568 C 445.73,161.085 431.223,155.068 417.827,151.425 C 405.649,149.319 390.727,148.412 378.103,149.021 C 364.405,151.005 349.504,154.989 337.497,159.617 C 325.907,165.549 311.96,175.008 301.214,184.534 C 293.663,192.912 285.625,203.997 278.524,216.752 C 274.619,226.309 269.755,242.267 265.398,261.215 C 263.896,272.203 263.421,289.418 264.07,308.653 C 265.913,321.907 269.57,338.118 274.15,351.68 C 279.497,363.379 287.067,376.267 294.386,386.355 C 304.261,397.366 314.049,406.145 321.684,411.876 C 331.332,417.57 342.966,423.104 356.192,428.08 C 368.477,431.095 378.703,432.601 390.771,433.265 C 401.229,432.793 414.679,430.838 426.243,427.802 C 449.302,418.47 466.888,407.282 475.573,399.569 C 483.618,390.641 491.509,379.842 497.853,368.991 C 507.434,346.526 511.555,332.58 514.002,320.517 C 515.99,305.836 516.858,290.79 516.488,275.55 C 515.07,262.066 512.817,249.656 509.093,235.882 C 501.352,216.842 494.616,204.978 487.287,194.694" data-line="nan"  stroke-width="50.0"/>
    <path d="M 173.463,619.438 C 173.997,567.312 174.932,556.157 177.199,543.82 C 180.383,533.992 185.102,524.683 196.076,509.072 L 202.15,503.149" data-line="nan"  stroke-width="50.0"/>
    <path d="M 483.263,463.131 C 522.457,471.936 547.339,480.867 558.815,486.804 C 570.416,494.308 579.601,502.096 586.852,510.042 C 593.073,518.717 599.061,529.799 603.103,540.93 C 605.573,551.637 607.899,573.394 608.108,619.438" data-line="nan"  stroke-width="50.0"/>
    <path d="M 97.283,618.26 C 124.275,648.969 136.755,661.048 154.129,676.222 C 185.041,699.302 201.443,709.671 218.893,719.259 C 238.592,728.504 257.58,736.228 277.99,743.351 C 299.616,749.788 320.102,754.783 337.422,757.976 Q 356.69,760.292 376.294,761.343" data-line="nan"  stroke-width="50.0"/>
    <path d="M 645.739,660.244 L 683.659,620.314" data-line="1.0"  stroke-width="50.0"/>
    <path d="M 1009.525,1020.0 L 649.455,658.029" data-line="2.0"  stroke-width="50.0"/>
    <path d="M 885.8386359826169,629.1638882157672 A 343.0491228088181,343.0491228088181 0 0,0 886.3895804216419,148.18014742593445" data-line="8.0"  stroke-width="50.0"/>
    <path d="M 827.287409770562,226.17915017233648 A 244.69883646111688,244.69883646111688 0 0,1 829.2019627111478,550.0253216438889" data-line="11.0"  stroke-width="50.0"/>
    <path d="M 202.15,503.149 C 229.33203401818142,475.80955028502865 267.3923218532514,470.27145621738214 295.902,463.599" data-line="13.0"  stroke-width="50.0"/>
    <path d="M 769.1622416809969,351.3854477064081 A 379.5798864843113,379.5798864843113 0 0,0 35.05387087938925,251.71931342991996" data-line="15.0"  stroke-width="50.0"/>
    <path d="M 35.73,251.97 C 14.900785252174925,314.57191622964433 14.194227845894844,349.38993380991246 14.652,397.304" data-line="16.0"  stroke-width="50.0"/>
    <path d="M 14.746103272528842,397.3012710179939 A 364.94125757446466,364.94125757446466 0 0,0 97.38163610314007,618.1790863472713" data-line="17.0"  stroke-width="50.0"/>
    <path d="M 376.29380549473103,761.348036940079 A 371.47057231961816,371.47057231961816 0 0,0 645.7021140238655,660.2049482979442" data-line="19.0"  stroke-width="50.0"/>
  </g>
</svg>